<svg id="Logo" xmlns="http://www.w3.org/2000/svg" width="507" height="153" viewBox="0 0 507 153">
  <text id="FILM_SQUARE" data-name="FILM SQUARE" transform="translate(36 98)" fill="#241100" font-size="60" font-family="Bungee-Regular, Bungee"><tspan x="0" y="0">FILM</tspan><tspan y="0" fill="#707070"> </tspan><tspan y="0" fill="#d6970f">SQUARE</tspan></text>
  <path id="Icon_awesome-film" data-name="Icon awesome-film" d="M34.313,4.5H33.75V5.906a.846.846,0,0,1-.844.844H30.094a.846.846,0,0,1-.844-.844V4.5H6.75V5.906a.846.846,0,0,1-.844.844H3.094a.846.846,0,0,1-.844-.844V4.5H1.688A1.683,1.683,0,0,0,0,6.188V29.813A1.683,1.683,0,0,0,1.688,31.5H2.25V30.094a.846.846,0,0,1,.844-.844H5.906a.846.846,0,0,1,.844.844V31.5h22.5V30.094a.846.846,0,0,1,.844-.844h2.813a.846.846,0,0,1,.844.844V31.5h.563A1.683,1.683,0,0,0,36,29.813V6.188A1.683,1.683,0,0,0,34.313,4.5ZM6.75,26.156A.846.846,0,0,1,5.906,27H3.094a.846.846,0,0,1-.844-.844V23.344a.846.846,0,0,1,.844-.844H5.906a.846.846,0,0,1,.844.844Zm0-6.75a.846.846,0,0,1-.844.844H3.094a.846.846,0,0,1-.844-.844V16.594a.846.846,0,0,1,.844-.844H5.906a.846.846,0,0,1,.844.844Zm0-6.75a.846.846,0,0,1-.844.844H3.094a.846.846,0,0,1-.844-.844V9.844A.846.846,0,0,1,3.094,9H5.906a.846.846,0,0,1,.844.844ZM25.875,27.281a.846.846,0,0,1-.844.844H10.969a.846.846,0,0,1-.844-.844v-6.75a.846.846,0,0,1,.844-.844H25.031a.846.846,0,0,1,.844.844Zm0-11.812a.846.846,0,0,1-.844.844H10.969a.846.846,0,0,1-.844-.844V8.719a.846.846,0,0,1,.844-.844H25.031a.846.846,0,0,1,.844.844ZM33.75,26.156a.846.846,0,0,1-.844.844H30.094a.846.846,0,0,1-.844-.844V23.344a.846.846,0,0,1,.844-.844h2.813a.846.846,0,0,1,.844.844Zm0-6.75a.846.846,0,0,1-.844.844H30.094a.846.846,0,0,1-.844-.844V16.594a.846.846,0,0,1,.844-.844h2.813a.846.846,0,0,1,.844.844Zm0-6.75a.846.846,0,0,1-.844.844H30.094a.846.846,0,0,1-.844-.844V9.844A.846.846,0,0,1,30.094,9h2.813a.846.846,0,0,1,.844.844Z" transform="translate(0 45.5)"/>
  <path id="Icon_awesome-film-2" data-name="Icon awesome-film" d="M34.313,4.5H33.75V5.906a.846.846,0,0,1-.844.844H30.094a.846.846,0,0,1-.844-.844V4.5H6.75V5.906a.846.846,0,0,1-.844.844H3.094a.846.846,0,0,1-.844-.844V4.5H1.688A1.683,1.683,0,0,0,0,6.188V29.813A1.683,1.683,0,0,0,1.688,31.5H2.25V30.094a.846.846,0,0,1,.844-.844H5.906a.846.846,0,0,1,.844.844V31.5h22.5V30.094a.846.846,0,0,1,.844-.844h2.813a.846.846,0,0,1,.844.844V31.5h.563A1.683,1.683,0,0,0,36,29.813V6.188A1.683,1.683,0,0,0,34.313,4.5ZM6.75,26.156A.846.846,0,0,1,5.906,27H3.094a.846.846,0,0,1-.844-.844V23.344a.846.846,0,0,1,.844-.844H5.906a.846.846,0,0,1,.844.844Zm0-6.75a.846.846,0,0,1-.844.844H3.094a.846.846,0,0,1-.844-.844V16.594a.846.846,0,0,1,.844-.844H5.906a.846.846,0,0,1,.844.844Zm0-6.75a.846.846,0,0,1-.844.844H3.094a.846.846,0,0,1-.844-.844V9.844A.846.846,0,0,1,3.094,9H5.906a.846.846,0,0,1,.844.844ZM25.875,27.281a.846.846,0,0,1-.844.844H10.969a.846.846,0,0,1-.844-.844v-6.75a.846.846,0,0,1,.844-.844H25.031a.846.846,0,0,1,.844.844Zm0-11.812a.846.846,0,0,1-.844.844H10.969a.846.846,0,0,1-.844-.844V8.719a.846.846,0,0,1,.844-.844H25.031a.846.846,0,0,1,.844.844ZM33.75,26.156a.846.846,0,0,1-.844.844H30.094a.846.846,0,0,1-.844-.844V23.344a.846.846,0,0,1,.844-.844h2.813a.846.846,0,0,1,.844.844Zm0-6.75a.846.846,0,0,1-.844.844H30.094a.846.846,0,0,1-.844-.844V16.594a.846.846,0,0,1,.844-.844h2.813a.846.846,0,0,1,.844.844Zm0-6.75a.846.846,0,0,1-.844.844H30.094a.846.846,0,0,1-.844-.844V9.844A.846.846,0,0,1,30.094,9h2.813a.846.846,0,0,1,.844.844Z" transform="translate(0.2 67.5)"/>
  <path id="Icon_awesome-film-3" data-name="Icon awesome-film" d="M34.313,4.5H33.75V5.906a.846.846,0,0,1-.844.844H30.094a.846.846,0,0,1-.844-.844V4.5H6.75V5.906a.846.846,0,0,1-.844.844H3.094a.846.846,0,0,1-.844-.844V4.5H1.688A1.683,1.683,0,0,0,0,6.188V29.813A1.683,1.683,0,0,0,1.688,31.5H2.25V30.094a.846.846,0,0,1,.844-.844H5.906a.846.846,0,0,1,.844.844V31.5h22.5V30.094a.846.846,0,0,1,.844-.844h2.813a.846.846,0,0,1,.844.844V31.5h.563A1.683,1.683,0,0,0,36,29.813V6.188A1.683,1.683,0,0,0,34.313,4.5ZM6.75,26.156A.846.846,0,0,1,5.906,27H3.094a.846.846,0,0,1-.844-.844V23.344a.846.846,0,0,1,.844-.844H5.906a.846.846,0,0,1,.844.844Zm0-6.75a.846.846,0,0,1-.844.844H3.094a.846.846,0,0,1-.844-.844V16.594a.846.846,0,0,1,.844-.844H5.906a.846.846,0,0,1,.844.844Zm0-6.75a.846.846,0,0,1-.844.844H3.094a.846.846,0,0,1-.844-.844V9.844A.846.846,0,0,1,3.094,9H5.906a.846.846,0,0,1,.844.844ZM25.875,27.281a.846.846,0,0,1-.844.844H10.969a.846.846,0,0,1-.844-.844v-6.75a.846.846,0,0,1,.844-.844H25.031a.846.846,0,0,1,.844.844Zm0-11.812a.846.846,0,0,1-.844.844H10.969a.846.846,0,0,1-.844-.844V8.719a.846.846,0,0,1,.844-.844H25.031a.846.846,0,0,1,.844.844ZM33.75,26.156a.846.846,0,0,1-.844.844H30.094a.846.846,0,0,1-.844-.844V23.344a.846.846,0,0,1,.844-.844h2.813a.846.846,0,0,1,.844.844Zm0-6.75a.846.846,0,0,1-.844.844H30.094a.846.846,0,0,1-.844-.844V16.594a.846.846,0,0,1,.844-.844h2.813a.846.846,0,0,1,.844.844Zm0-6.75a.846.846,0,0,1-.844.844H30.094a.846.846,0,0,1-.844-.844V9.844A.846.846,0,0,1,30.094,9h2.813a.846.846,0,0,1,.844.844Z" transform="translate(471 45.5)"/>
  <path id="Icon_awesome-film-4" data-name="Icon awesome-film" d="M34.313,4.5H33.75V5.906a.846.846,0,0,1-.844.844H30.094a.846.846,0,0,1-.844-.844V4.5H6.75V5.906a.846.846,0,0,1-.844.844H3.094a.846.846,0,0,1-.844-.844V4.5H1.688A1.683,1.683,0,0,0,0,6.188V29.813A1.683,1.683,0,0,0,1.688,31.5H2.25V30.094a.846.846,0,0,1,.844-.844H5.906a.846.846,0,0,1,.844.844V31.5h22.5V30.094a.846.846,0,0,1,.844-.844h2.813a.846.846,0,0,1,.844.844V31.5h.563A1.683,1.683,0,0,0,36,29.813V6.188A1.683,1.683,0,0,0,34.313,4.5ZM6.75,26.156A.846.846,0,0,1,5.906,27H3.094a.846.846,0,0,1-.844-.844V23.344a.846.846,0,0,1,.844-.844H5.906a.846.846,0,0,1,.844.844Zm0-6.75a.846.846,0,0,1-.844.844H3.094a.846.846,0,0,1-.844-.844V16.594a.846.846,0,0,1,.844-.844H5.906a.846.846,0,0,1,.844.844Zm0-6.75a.846.846,0,0,1-.844.844H3.094a.846.846,0,0,1-.844-.844V9.844A.846.846,0,0,1,3.094,9H5.906a.846.846,0,0,1,.844.844ZM25.875,27.281a.846.846,0,0,1-.844.844H10.969a.846.846,0,0,1-.844-.844v-6.75a.846.846,0,0,1,.844-.844H25.031a.846.846,0,0,1,.844.844Zm0-11.812a.846.846,0,0,1-.844.844H10.969a.846.846,0,0,1-.844-.844V8.719a.846.846,0,0,1,.844-.844H25.031a.846.846,0,0,1,.844.844ZM33.75,26.156a.846.846,0,0,1-.844.844H30.094a.846.846,0,0,1-.844-.844V23.344a.846.846,0,0,1,.844-.844h2.813a.846.846,0,0,1,.844.844Zm0-6.75a.846.846,0,0,1-.844.844H30.094a.846.846,0,0,1-.844-.844V16.594a.846.846,0,0,1,.844-.844h2.813a.846.846,0,0,1,.844.844Zm0-6.75a.846.846,0,0,1-.844.844H30.094a.846.846,0,0,1-.844-.844V9.844A.846.846,0,0,1,30.094,9h2.813a.846.846,0,0,1,.844.844Z" transform="translate(471 67.5)"/>
</svg>
